# xmcd CD database file
#
# Track frame offsets:
#	150
#	5145
#	20040
#	36967
#	51860
#	72957
#	92670
#	163060
#	178280
#
# Disc length: 2478 seconds
#
# Revision: 0
# Processed by: cddbd v1.5.1PL0 Copyright (c) Steve Scherf et al.
# Submitted via: CDex 1.51
#
DISCID=7c09ac09
DTITLE=Mel Torme - Live At The Maisonette
DYEAR=1975
DGENRE=Jazz Vocal
TTITLE0=Introduction
TTITLE1=Jet Set
TTITLE2=What Are You Doing The Rest Of Your Life
TTITLE3=Mountain Greenery
TTITLE4=It Takes Too Long To Learn To Live Alone
TTITLE5=(Get Your Kicks On) Route 66
TTITLE6=Gershwin Medley
TTITLE7=Superstition
TTITLE8=The Party's Over
EXTD=YEAR: 1975
EXTT0=
EXTT1=
EXTT2=
EXTT3=
EXTT4=
EXTT5=
EXTT6=
EXTT7=
EXTT8=
PLAYORDER=
